<svg width="153" height="150" viewBox="0 0 153 150" fill="none" xmlns="http://www.w3.org/2000/svg">
<path fill-rule="evenodd" clip-rule="evenodd" d="M0.50061 0.289795H152.272V149.414H0.50061V0.289795ZM0.737753 0.556087H19.2349V21.3269H0.737753V0.556087ZM19.7091 0.556087H38.2062V21.3269H19.7091V0.556087ZM57.1776 0.556087H38.6805V21.3269H57.1776V0.556087ZM57.6519 0.556087H76.149V21.3269H57.6519V0.556087ZM95.1204 0.556087H76.6233V21.3269H95.1204V0.556087ZM95.5947 0.556087H114.092V21.3269H95.5947V0.556087ZM133.063 0.556087H114.566V21.3269H133.063V0.556087ZM133.537 0.556087H152.035V21.3269H133.537V0.556087ZM19.2349 21.8595H0.737753V42.6303H19.2349V21.8595ZM19.7091 21.8595H38.2062V42.6303H19.7091V21.8595ZM57.1776 21.8595H38.6805V42.6303H57.1776V21.8595ZM57.6519 21.8595H76.149V42.6303H57.6519V21.8595ZM95.1204 21.8595H76.6233V42.6303H95.1204V21.8595ZM95.5947 21.8595H114.092V42.6303H95.5947V21.8595ZM133.063 21.8595H114.566V42.6303H133.063V21.8595ZM133.537 21.8595H152.035V42.6303H133.537V21.8595ZM19.2349 43.1629H0.737753V63.9337H19.2349V43.1629ZM19.7091 43.1629H38.2062V63.9337H19.7091V43.1629ZM57.1776 43.1629H38.6805V63.9337H57.1776V43.1629ZM57.6519 43.1629H76.149V63.9337H57.6519V43.1629ZM95.1204 43.1629H76.6233V63.9337H95.1204V43.1629ZM95.5947 43.1629H114.092V63.9337H95.5947V43.1629ZM133.063 43.1629H114.566V63.9337H133.063V43.1629ZM133.537 43.1629H152.035V63.9337H133.537V43.1629ZM19.2349 64.4662H0.737753V85.237H19.2349V64.4662ZM19.7091 64.4662H38.2062V85.237H19.7091V64.4662ZM57.1776 64.4662H38.6805V85.237H57.1776V64.4662ZM57.6519 64.4662H76.149V85.237H57.6519V64.4662ZM95.1204 64.4662H76.6233V85.237H95.1204V64.4662ZM95.5947 64.4662H114.092V85.237H95.5947V64.4662ZM133.063 64.4662H114.566V85.237H133.063V64.4662ZM133.537 64.4662H152.035V85.237H133.537V64.4662ZM19.2349 85.7696H0.737753V106.54H19.2349V85.7696ZM19.7091 85.7696H38.2062V106.54H19.7091V85.7696ZM57.1776 85.7696H38.6805V106.54H57.1776V85.7696ZM57.6519 85.7696H76.149V106.54H57.6519V85.7696ZM95.1204 85.7696H76.6233V106.54H95.1204V85.7696ZM95.5947 85.7696H114.092V106.54H95.5947V85.7696ZM133.063 85.7696H114.566V106.54H133.063V85.7696ZM133.537 85.7696H152.035V106.54H133.537V85.7696ZM19.2349 107.073H0.737753V127.844H19.2349V107.073ZM19.7091 107.073H38.2062V127.844H19.7091V107.073ZM57.1776 107.073H38.6805V127.844H57.1776V107.073ZM57.6519 107.073H76.149V127.844H57.6519V107.073ZM95.1204 107.073H76.6233V127.844H95.1204V107.073ZM95.5947 107.073H114.092V127.844H95.5947V107.073ZM133.063 107.073H114.566V127.844H133.063V107.073ZM133.537 107.073H152.035V127.844H133.537V107.073ZM19.2349 128.376H0.737753V149.147H19.2349V128.376ZM19.7091 128.376H38.2062V149.147H19.7091V128.376ZM57.1776 128.376H38.6805V149.147H57.1776V128.376ZM57.6519 128.376H76.149V149.147H57.6519V128.376ZM95.1204 128.376H76.6233V149.147H95.1204V128.376ZM95.5947 128.376H114.092V149.147H95.5947V128.376ZM133.063 128.376H114.566V149.147H133.063V128.376ZM133.537 128.376H152.035V149.147H133.537V128.376Z" fill="#353535"/>
</svg>
