<svg width="186" height="112" viewBox="0 0 186 112" fill="none" xmlns="http://www.w3.org/2000/svg">
<g filter="url(#filter0_d_4_11)">
<path fill-rule="evenodd" clip-rule="evenodd" d="M146.267 39.4712C146.253 41.0049 147.165 42.2565 148.305 42.2667C149.445 42.2769 150.381 41.0419 150.395 39.5082C150.409 37.9745 149.496 36.7229 148.356 36.7126C147.216 36.7024 146.281 37.9375 146.267 39.4712ZM125.626 39.2862C125.612 40.8199 126.524 42.0715 127.664 42.0817C128.804 42.0919 129.74 40.8569 129.754 39.3232C129.768 37.7895 128.855 36.5379 127.715 36.5277C126.575 36.5174 125.64 37.7525 125.626 39.2862ZM107.023 41.8967C105.884 41.8865 104.971 40.6349 104.985 39.1012C104.999 37.5675 105.934 36.3324 107.074 36.3427C108.214 36.3529 109.127 37.6045 109.113 39.1382C109.099 40.6719 108.163 41.9069 107.023 41.8967ZM84.3439 38.9162C84.3299 40.4499 85.2426 41.7015 86.3826 41.7117C87.5225 41.722 88.458 40.4869 88.4721 38.9532C88.4861 37.4195 87.5734 36.1679 86.4334 36.1577C85.2935 36.1475 84.3579 37.3825 84.3439 38.9162ZM65.7416 41.5267C64.6017 41.5165 63.6889 40.2649 63.703 38.7312C63.717 37.1975 64.6525 35.9625 65.7925 35.9727C66.9325 35.9829 67.8452 37.2345 67.8312 38.7682C67.8171 40.3019 66.8816 41.537 65.7416 41.5267ZM43.0621 38.5462C43.048 40.0799 43.9608 41.3315 45.1007 41.3418C46.2407 41.352 47.1762 40.1169 47.1903 38.5832C47.2043 37.0495 46.2916 35.7979 45.1516 35.7877C44.0116 35.7775 43.0761 37.0125 43.0621 38.5462ZM148.051 70.0371C146.911 70.0268 145.998 68.7752 146.012 67.2415C146.026 65.7078 146.962 64.4728 148.102 64.483C149.242 64.4932 150.155 65.7448 150.14 67.2785C150.126 68.8122 149.191 70.0473 148.051 70.0371ZM125.371 67.0565C125.357 68.5902 126.27 69.8418 127.41 69.8521C128.55 69.8623 129.486 68.6272 129.5 67.0935C129.514 65.5598 128.601 64.3082 127.461 64.298C126.321 64.2878 125.385 65.5228 125.371 67.0565ZM106.769 69.6671C105.629 69.6569 104.716 68.4053 104.73 66.8715C104.745 65.3378 105.68 64.1028 106.82 64.113C107.96 64.1232 108.873 65.3748 108.859 66.9085C108.845 68.4423 107.909 69.6773 106.769 69.6671ZM84.0895 66.6866C84.0755 68.2203 84.9882 69.4719 86.1282 69.4821C87.2682 69.4923 88.2037 68.2573 88.2177 66.7235C88.2318 65.1898 87.319 63.9382 86.1791 63.928C85.0391 63.9178 84.1036 65.1528 84.0895 66.6866ZM65.4873 69.2971C64.3473 69.2869 63.4346 68.0353 63.4486 66.5016C63.4627 64.9678 64.3982 63.7328 65.5382 63.743C66.6781 63.7532 67.5909 65.0048 67.5768 66.5386C67.5628 68.0723 66.6273 69.3073 65.4873 69.2971ZM42.8077 66.3166C42.7937 67.8503 43.7064 69.1019 44.8464 69.1121C45.9863 69.1223 46.9219 67.8873 46.9359 66.3536C46.9499 64.8199 46.0372 63.5683 44.8972 63.558C43.7573 63.5478 42.8218 64.7829 42.8077 66.3166Z" fill="#6F6F6F"/>
</g>
<defs>
<filter id="filter0_d_4_11" x="0.181553" y="0.136759" width="185.089" height="111.751" filterUnits="userSpaceOnUse" color-interpolation-filters="sRGB">
<feFlood flood-opacity="0" result="BackgroundImageFix"/>
<feColorMatrix in="SourceAlpha" type="matrix" values="0 0 0 0 0 0 0 0 0 0 0 0 0 0 0 0 0 0 127 0" result="hardAlpha"/>
<feOffset dx="-3.87509" dy="3.10007"/>
<feGaussianBlur stdDeviation="19.3755"/>
<feComposite in2="hardAlpha" operator="out"/>
<feColorMatrix type="matrix" values="0 0 0 0 0.208377 0 0 0 0 0.208377 0 0 0 0 0.208377 0 0 0 1 0"/>
<feBlend mode="normal" in2="BackgroundImageFix" result="effect1_dropShadow_4_11"/>
<feBlend mode="normal" in="SourceGraphic" in2="effect1_dropShadow_4_11" result="shape"/>
</filter>
</defs>
</svg>
